<svg xmlns="http://www.w3.org/2000/svg" version="1.1" xmlns:xlink="http://www.w3.org/1999/xlink" xmlns:svgjs="http://svgjs.com/svgjs" height="180.97919311523435" width="258.9700012207031"><defs id="SvgjsDefs1494"></defs><g id="SvgjsG1495" rel="mainfill" name="main_text" xmlns:name="main_text" transform="translate(-2.930000066757202,-59.970803833007835)" fill="#000000"><path d="M10.39 218.13L33.57 218.13L33.57 210.67L10.39 210.67L10.39 196.26L34.08 196.26L34.08 188.88L2.93 188.88L2.93 240L34.15 240L34.15 232.61L10.39 232.61ZM76.79 201.75C75.48 192.39 67.29 188.29 59.39 188.29C53.46 188.29 47.32 190.63 43.88 195.09C41.69 197.95 40.81 201.38 41.10 204.82L41.10 204.75C41.91 215.43 51.27 217.18 59.24 217.99C64.36 218.50 69.63 219.16 70.50 223.03C70.65 223.69 70.72 224.28 70.72 224.79C70.72 230.05 64.73 233.13 59.24 233.13C54.49 233.13 48.71 230.64 48.20 225.88L48.20 226.18L48.12 225.08L40.66 225.23L40.74 226.62C41.69 235.76 51.27 240.44 59.17 240.44C68.38 240.44 78.18 234.73 78.18 224.86C78.18 223.84 78.04 222.59 77.82 221.50C75.84 213.31 67.14 211.48 60.12 210.60C54.63 210.09 48.86 209.43 48.49 204.16C48.34 202.41 48.71 200.73 49.73 199.41C51.78 196.78 55.58 195.61 59.02 195.53C63.48 195.46 68.46 197.43 69.48 202.04ZM106.49 240L106.49 195.83L121.92 195.83L121.92 188.80L83.59 188.80L83.59 195.83L99.10 195.83L99.10 240ZM172.24 214.40C172.24 219.74 170.12 224.42 166.75 227.79C163.24 231.30 158.49 233.42 153.37 233.42C148.25 233.42 143.57 231.30 140.13 227.79C136.69 224.42 134.57 219.67 134.57 214.40C134.57 209.14 136.69 204.38 140.13 201.02C143.57 197.51 148.25 195.39 153.37 195.39C158.49 195.39 163.24 197.51 166.75 201.02C170.12 204.38 172.24 209.06 172.24 214.40ZM127.04 214.40C127.04 221.72 130.04 228.30 134.72 233.13C139.47 238.03 146.13 240.95 153.37 240.95C160.68 240.95 167.26 238.03 172.09 233.13C176.77 228.30 179.77 221.72 179.77 214.40C179.77 207.09 176.77 200.51 172.09 195.68C167.26 190.85 160.68 187.85 153.37 187.85C146.13 187.85 139.47 190.85 134.72 195.68C130.04 200.51 127.04 207.09 127.04 214.40ZM197.25 217.55L215.90 240L225.48 240L209.32 220.77C218.09 219.23 222.55 212.35 222.55 205.11C222.55 197.00 217.00 188.80 205.88 188.80L187.23 188.80L187.23 240L194.54 240L194.54 196.26L205.88 196.26C212.10 196.26 215.17 200.73 215.17 205.11C215.17 209.58 212.10 214.04 205.88 214.04L197.25 214.04ZM238.13 218.13L261.32 218.13L261.32 210.67L238.13 210.67L238.13 196.26L261.83 196.26L261.83 188.88L230.67 188.88L230.67 240L261.90 240L261.90 232.61L238.13 232.61Z" fill="#000000" style="fill: rgb(0, 0, 0);"></path></g><g id="SvgjsG1496" rel="mainfill" name="symbol" xmlns:name="symbol_mainfill" transform="translate(68.28488388061523,-3.6719999313354563) scale(1.2)" fill="#B9121B"><g fill="#B9121B"><circle cx="33.583" cy="32.227" r="2.667"></circle><circle cx="61.25" cy="32.227" r="2.667"></circle><g fill="#B9121B"><path d="M49.837,9.56c-2.767,0-4.87,0.683-6.405,2.078c-3.356,6.201-3.765,13.493-3.713,13.862l4.952-0.685    c-0.012-0.087,0.866-8.785,5.05-13.574c0.54-0.618,1.154-1.134,1.828-1.57C51.005,9.604,50.44,9.56,49.837,9.56z" fill="#B9121B" style="fill: rgb(185, 18, 27);"></path><path d="M69.718,7.937C66.82,4.701,62.824,3.06,57.837,3.06c-0.11,0-0.214,0.012-0.323,0.014c2.027,0.895,3.811,2.175,5.322,3.863    c0.971,1.085,1.725,2.268,2.305,3.503c0.293,0.254,0.575,0.524,0.84,0.819c4.439,4.943,1.52,14.029,1.51,14.116l4.971,0.552    C72.512,25.466,75.646,14.562,69.718,7.937z" fill="#B9121B" style="fill: rgb(185, 18, 27);"></path></g><path d="M64.461,25.927l-4.971-0.552c0.01-0.087,2.93-9.173-1.51-14.116c-1.934-2.153-4.598-3.2-8.144-3.2   c-3.591,0-6.246,1.041-8.116,3.181c-4.184,4.79-5.062,13.487-5.05,13.574L31.718,25.5c-0.062-0.446,0.543-11.007,6.22-17.529   c2.837-3.259,6.84-4.911,11.898-4.911c4.987,0,8.983,1.641,11.881,4.877C67.646,14.562,64.512,25.466,64.461,25.927z" fill="#B9121B" style="fill: rgb(185, 18, 27);"></path><path d="M89.8,30.344l-6.697-6.786c-0.009-0.009-0.022-0.014-0.031-0.023c-0.147-0.145-0.313-0.264-0.487-0.366   c-0.049-0.028-0.096-0.055-0.146-0.08c-0.185-0.092-0.376-0.167-0.577-0.212c-0.008-0.002-0.016-0.006-0.024-0.008   c-0.168-0.035-0.339-0.055-0.514-0.055H13.979c-0.681,0-1.332,0.277-1.803,0.769c-0.472,0.491-0.722,1.153-0.695,1.833   l2.977,69.312c0.055,1.34,1.157,2.398,2.498,2.398h62.136c0.002,0,0.003-0.001,0.005-0.001c0.156,0,0.313-0.016,0.465-0.045   c0.066-0.014,0.129-0.037,0.193-0.055c0.086-0.023,0.172-0.044,0.254-0.077c0.07-0.027,0.135-0.064,0.202-0.099   c0.072-0.036,0.146-0.07,0.214-0.113c0.066-0.041,0.125-0.09,0.186-0.137c0.051-0.04,0.105-0.072,0.154-0.115l6.945-6.25   c0.505-0.455,0.803-1.097,0.826-1.777l1.984-56.275C90.541,31.497,90.281,30.832,89.8,30.344z M16.582,27.814h62.164l-2.08,64.312   H19.355L16.582,27.814z M83.572,87.229l-1.805,1.624l1.877-57.628l1.842,1.867L83.572,87.229z" fill="#B9121B" style="fill: rgb(185, 18, 27);"></path></g></g></svg>